<?xml version="1.0" encoding="UTF-8" standalone="no"?>
<!-- Generator: Adobe Illustrator 16.0.0, SVG Export Plug-In . SVG Version: 6.00 Build 0)  -->

<svg
   xmlns:dc="http://purl.org/dc/elements/1.1/"
   xmlns:cc="http://creativecommons.org/ns#"
   xmlns:rdf="http://www.w3.org/1999/02/22-rdf-syntax-ns#"
   xmlns:svg="http://www.w3.org/2000/svg"
   xmlns="http://www.w3.org/2000/svg"
   xmlns:sodipodi="http://sodipodi.sourceforge.net/DTD/sodipodi-0.dtd"
   xmlns:inkscape="http://www.inkscape.org/namespaces/inkscape"
   version="1.1"
   id="Layer_2"
   x="0px"
   y="0px"
   width="1841.89"
   height="595.28003"
   viewBox="0 0 1841.89 595.28"
   enable-background="new 0 0 841.89 595.28"
   xml:space="preserve"
   inkscape:version="0.91 r13725"
   sodipodi:docname="logo.svg"><metadata
     id="metadata31"><rdf:RDF><cc:Work
         rdf:about=""><dc:format>image/svg+xml</dc:format><dc:type
           rdf:resource="http://purl.org/dc/dcmitype/StillImage" /><dc:title></dc:title></cc:Work></rdf:RDF></metadata><defs
     id="defs29" /><sodipodi:namedview
     pagecolor="#ffffff"
     bordercolor="#666666"
     borderopacity="1"
     objecttolerance="10"
     gridtolerance="10"
     guidetolerance="10"
     inkscape:pageopacity="0"
     inkscape:pageshadow="2"
     inkscape:window-width="1280"
     inkscape:window-height="751"
     id="namedview27"
     showgrid="false"
     showguides="true"
     inkscape:guide-bbox="true"
     inkscape:zoom="0.69842852"
     inkscape:cx="478.21644"
     inkscape:cy="297.64001"
     inkscape:window-x="0"
     inkscape:window-y="1"
     inkscape:window-maximized="1"
     inkscape:current-layer="g5"><sodipodi:guide
       position="695.84786,455.30784"
       orientation="0,1"
       id="guide4159" /></sodipodi:namedview><g
     id="g3"><g
       id="g5"
       transform="translate(423.80858,-186.72286)"><path
         d="m 224.239,400.234 c 0,6.666 -3.592,12.039 -10.777,16.118 -7.185,4.079 -17.019,6.12 -29.5,6.12 -6.909,0 -13.173,-0.537 -18.792,-1.609 -5.619,-1.072 -10.133,-2.26 -13.541,-3.562 l 0,-17.008 2.279,0 c 1.244,0.727 2.683,1.521 4.318,2.384 1.634,0.862 3.949,1.792 6.943,2.787 2.579,0.882 5.503,1.638 8.774,2.269 3.27,0.633 6.771,0.949 10.501,0.949 4.881,0 8.498,-0.45 10.847,-1.351 2.349,-0.899 3.524,-2.231 3.524,-3.993 0,-1.57 -0.691,-2.71 -2.073,-3.419 -1.382,-0.709 -4.007,-1.388 -7.876,-2.041 -1.842,-0.344 -4.341,-0.718 -7.496,-1.12 -3.155,-0.401 -6.022,-0.891 -8.601,-1.465 -7.047,-1.531 -12.274,-3.916 -15.683,-7.154 -3.409,-3.236 -5.112,-7.269 -5.112,-12.095 0,-6.207 3.534,-11.368 10.604,-15.487 7.069,-4.117 16.729,-6.177 28.982,-6.177 5.803,0 11.365,0.489 16.685,1.465 5.319,0.978 9.475,2.021 12.47,3.133 l 0,16.319 -2.142,0 c -3.685,-2.107 -7.888,-3.822 -12.608,-5.145 -4.722,-1.32 -9.5,-1.981 -14.335,-1.981 -4.007,0 -7.381,0.46 -10.121,1.379 -2.74,0.919 -4.11,2.223 -4.11,3.907 0,1.532 0.622,2.701 1.866,3.506 1.243,0.804 4.167,1.609 8.774,2.413 2.532,0.422 5.261,0.833 8.187,1.235 2.924,0.402 5.86,0.91 8.809,1.522 6.54,1.418 11.375,3.649 14.508,6.694 3.13,3.046 4.696,6.85 4.696,11.407 z"
         id="path7"
         inkscape:connector-curvature="0"
         style="fill:#337ab7;fill-opacity:1" /><path
         d="m 317.161,392.248 -56.928,0 c 0.369,5.057 2.683,8.926 6.943,11.607 4.26,2.681 10.537,4.021 18.826,4.021 5.25,0 10.34,-0.784 15.268,-2.355 4.929,-1.57 8.82,-3.257 11.677,-5.057 l 2.763,0 0,16.605 c -5.619,1.878 -10.915,3.238 -15.891,4.08 -4.974,0.842 -10.478,1.265 -16.511,1.265 -15.568,0 -27.497,-2.911 -35.787,-8.734 -8.291,-5.822 -12.437,-14.116 -12.437,-24.882 0,-10.648 3.926,-19.086 11.78,-25.312 7.852,-6.224 18.618,-9.337 32.297,-9.337 12.619,0 22.107,2.652 28.464,7.958 6.355,5.307 9.534,12.939 9.534,22.898 l 0,7.243 z m -24.733,-12.125 c -0.139,-4.328 -1.428,-7.585 -3.869,-9.77 -2.441,-2.183 -6.241,-3.275 -11.399,-3.275 -4.79,0 -8.728,1.036 -11.813,3.104 -3.086,2.068 -4.813,5.383 -5.182,9.941 l 32.263,0 z"
         id="path9"
         inkscape:connector-curvature="0"
         style="fill:#337ab7;fill-opacity:1" /><path
         d="m 390.944,375.871 -2.205,0 c -1.058,-0.307 -2.759,-0.536 -5.102,-0.689 -2.345,-0.153 -4.297,-0.229 -5.859,-0.229 -3.538,0 -6.664,0.191 -9.375,0.574 -2.712,0.384 -5.631,1.034 -8.755,1.953 l 0,43.211 -24.94,0 0,-64.529 24.94,0 0,9.481 c 5.469,-3.907 10.225,-6.502 14.269,-7.786 4.044,-1.283 7.767,-1.925 11.168,-1.925 0.872,0 1.861,0.021 2.964,0.058 1.104,0.038 2.069,0.096 2.896,0.172 l 0,19.709 z"
         id="path11"
         inkscape:connector-curvature="0"
         style="fill:#888888" /><path
         d="m 481.448,392.248 -56.928,0 c 0.368,5.057 2.682,8.926 6.943,11.607 4.26,2.681 10.536,4.021 18.826,4.021 5.251,0 10.34,-0.784 15.269,-2.355 4.928,-1.57 8.819,-3.257 11.675,-5.057 l 2.764,0 0,16.605 c -5.619,1.878 -10.915,3.238 -15.89,4.08 -4.974,0.842 -10.479,1.265 -16.512,1.265 -15.568,0 -27.497,-2.911 -35.787,-8.734 -8.29,-5.822 -12.436,-14.116 -12.436,-24.882 0,-10.648 3.926,-19.086 11.779,-25.312 7.853,-6.224 18.619,-9.337 32.298,-9.337 12.618,0 22.108,2.652 28.465,7.958 6.354,5.307 9.533,12.939 9.533,22.898 l 0,7.243 z m -24.732,-12.125 c -0.139,-4.328 -1.429,-7.585 -3.869,-9.77 -2.442,-2.183 -6.242,-3.275 -11.4,-3.275 -4.79,0 -8.729,1.036 -11.813,3.104 -3.087,2.068 -4.813,5.383 -5.182,9.941 l 32.264,0 z"
         id="path13"
         inkscape:connector-curvature="0"
         style="fill:#888888" /><path
         d="m 523.936,420.69 -24.939,0 0,-89.411 24.939,0 0,89.411 z"
         id="path15"
         inkscape:connector-curvature="0"
         style="fill:#888888" /><path
         d="m 623.767,392.248 -56.928,0 c 0.368,5.057 2.684,8.926 6.943,11.607 4.26,2.681 10.535,4.021 18.826,4.021 5.251,0 10.34,-0.784 15.269,-2.355 4.928,-1.57 8.819,-3.257 11.675,-5.057 l 2.764,0 0,16.605 c -5.619,1.878 -10.915,3.238 -15.89,4.08 -4.974,0.842 -10.479,1.265 -16.512,1.265 -15.569,0 -27.496,-2.911 -35.787,-8.734 -8.29,-5.822 -12.436,-14.116 -12.436,-24.882 0,-10.648 3.927,-19.086 11.778,-25.312 7.853,-6.224 18.62,-9.337 32.299,-9.337 12.618,0 22.108,2.652 28.465,7.958 6.354,5.307 9.533,12.939 9.533,22.898 l 0,7.243 z m -24.733,-12.125 c -0.139,-4.328 -1.429,-7.585 -3.869,-9.77 -2.442,-2.183 -6.242,-3.275 -11.399,-3.275 -4.791,0 -8.729,1.036 -11.814,3.104 -3.085,2.068 -4.813,5.383 -5.182,9.941 l 32.264,0 z"
         id="path17"
         inkscape:connector-curvature="0"
         style="fill:#337ab7;fill-opacity:1" /><path
         d="m 722.421,420.69 -29.019,0 -16.575,-19.321 -17.028,19.321 -28.433,0 30.604,-32.306 -30.121,-32.224 29.017,0 16.3,18.937 16.389,-18.937 28.521,0 -30.188,31.784 30.533,32.746 z"
         id="path19"
         inkscape:connector-curvature="0"
         style="fill:#337ab7;fill-opacity:1" /></g><g
       id="g21"><path
         d="m 419.778,141.847 c -24.047,0 -54.771,15.472 -63.452,40.631 -9.735,28.208 2.788,63.34 40.844,75.014 l -3.976,16.598 c 0.879,0.29 1.772,0.559 2.67,0.826 l 35.811,-21.972 -24.037,-39.17 -4.106,17.148 c -16.708,-3.957 -25.618,-21.184 -21.523,-37.246 4.067,-15.951 21.445,-24.544 37.771,-24.544 52.546,0 86.677,36.781 100.683,59.705 -5.497,8.998 -12.432,17.862 -20.655,25.901 0.19,7.944 -1.01,15.947 -3.643,23.581 -2.771,8.029 -7.372,15.169 -13.143,21.321 29.213,-15.169 54.147,-40.065 66.612,-70.668 -20.343,-49.502 -74.277,-87.125 -129.856,-87.125 z"
         id="path23"
         inkscape:connector-curvature="0"
         style="fill:#337ab7;fill-opacity:1" /><path
         d="m 423.66,315.826 c 24.044,0 54.768,-15.473 63.452,-40.631 9.735,-28.208 -2.79,-63.34 -40.845,-75.014 l 3.976,-16.598 c -0.879,-0.29 -1.772,-0.559 -2.67,-0.826 l -35.811,21.972 24.037,39.17 4.106,-17.148 c 16.706,3.957 25.619,21.184 21.523,37.246 -4.069,15.951 -21.444,24.544 -37.77,24.544 -52.551,0 -86.678,-36.781 -100.688,-59.705 5.498,-8.999 12.432,-17.862 20.659,-25.901 -0.19,-7.943 1.007,-15.947 3.644,-23.581 2.771,-8.028 7.371,-15.169 13.142,-21.321 -29.213,15.169 -54.15,40.065 -66.615,70.668 20.343,49.502 74.28,87.125 129.86,87.125 z"
         id="path25"
         inkscape:connector-curvature="0"
         style="fill:#888888" /></g></g></svg>